<svg width="758" height="185" viewBox="0 0 758 185" fill="none" xmlns="http://www.w3.org/2000/svg">
<g clip-path="url(#clip0_0_1)">
<circle cx="29.4314" cy="56.4494" r="2.5" transform="rotate(-11.3768 29.4314 56.4494)" fill="#ABB1C6"/>
<circle cx="146.087" cy="27.8763" r="12.5" transform="rotate(-11.3768 146.087 27.8763)" fill="#ABB1C6"/>
<circle cx="109.817" cy="37.7245" r="10" transform="rotate(-11.3768 109.817 37.7245)" fill="#ABB1C6"/>
<circle cx="78.0544" cy="44.6256" r="7.5" transform="rotate(-11.3768 78.0544 44.6256)" fill="#ABB1C6"/>
<circle cx="51.3906" cy="51.5208" r="5" transform="rotate(-11.3768 51.3906 51.5208)" fill="#ABB1C6"/>
<circle cx="45.2003" cy="124.679" r="2.5" transform="rotate(-11.3768 45.2003 124.679)" fill="#ABB1C6"/>
<circle cx="161.27" cy="98.2643" r="12.5" transform="rotate(-11.3768 161.27 98.2643)" fill="#ABB1C6"/>
<circle cx="125.586" cy="105.955" r="10" transform="rotate(-11.3768 125.586 105.955)" fill="#ABB1C6"/>
<circle cx="93.8234" cy="112.856" r="7.5" transform="rotate(-11.3768 93.8234 112.856)" fill="#ABB1C6"/>
<circle cx="67.1596" cy="119.751" r="5" transform="rotate(-11.3768 67.1596 119.751)" fill="#ABB1C6"/>
<circle cx="52.3017" cy="159.972" r="2.5" transform="rotate(-11.3768 52.3017 159.972)" fill="#ABB1C6"/>
<circle cx="168.372" cy="133.557" r="12.5" transform="rotate(-11.3768 168.372 133.557)" fill="#ABB1C6"/>
<circle cx="132.688" cy="141.247" r="10" transform="rotate(-11.3768 132.688 141.247)" fill="#ABB1C6"/>
<circle cx="100.925" cy="148.148" r="7.5" transform="rotate(-11.3768 100.925 148.148)" fill="#ABB1C6"/>
<circle cx="74.261" cy="155.044" r="5" transform="rotate(-11.3768 74.261 155.044)" fill="#ABB1C6"/>
<circle cx="36.5328" cy="91.742" r="2.5" transform="rotate(-11.3768 36.5328 91.742)" fill="#ABB1C6"/>
<circle cx="153.189" cy="63.169" r="12.5" transform="rotate(-11.3768 153.189 63.169)" fill="#ABB1C6"/>
<circle cx="116.919" cy="73.0171" r="10" transform="rotate(-11.3768 116.919 73.0171)" fill="#ABB1C6"/>
<circle cx="85.1558" cy="79.9183" r="7.5" transform="rotate(-11.3768 85.1558 79.9183)" fill="#ABB1C6"/>
<circle cx="58.492" cy="86.8135" r="5" transform="rotate(-11.3768 58.492 86.8135)" fill="#ABB1C6"/>
</g>
<path d="M196.91 143L170.88 9.99999H188.55L206.22 99.87L223.89 9.99999H241.56L259.04 99.87L276.71 9.99999H294.38L268.35 143H249.92L232.63 54.84L215.34 143H196.91ZM312.353 143C308.553 143 305.259 141.67 302.473 139.01C299.813 136.223 298.483 132.93 298.483 129.13V61.68C298.483 57.88 299.813 54.65 302.473 51.99C305.259 49.33 308.553 48 312.353 48H338.193C342.119 48 345.413 49.33 348.073 51.99C350.733 54.65 352.063 57.88 352.063 61.68V90.56C352.063 94.36 350.733 97.6533 348.073 100.44C345.413 103.1 342.119 104.43 338.193 104.43H316.343V118.3C316.343 120.2 316.976 121.847 318.243 123.24C319.636 124.507 321.346 125.14 323.373 125.14H348.073L352.063 143H312.353ZM316.343 86.57H327.363C329.263 86.57 330.846 85.9367 332.113 84.67C333.506 83.2767 334.203 81.63 334.203 79.73V72.7C334.203 70.8 333.506 69.2167 332.113 67.95C330.846 66.5567 329.263 65.86 327.363 65.86H323.373C321.346 65.86 319.636 66.5567 318.243 67.95C316.976 69.2167 316.343 70.8 316.343 72.7V86.57ZM365.465 143V4.48999L383.325 0.499989V48H405.175C408.975 48 412.205 49.33 414.865 51.99C417.652 54.65 419.045 57.9433 419.045 61.87V129.13C419.045 132.93 417.652 136.223 414.865 139.01C412.205 141.67 408.975 143 405.175 143H365.465ZM383.325 125.14H394.155C396.055 125.14 397.702 124.507 399.095 123.24C400.489 121.847 401.185 120.2 401.185 118.3V72.7C401.185 70.8 400.489 69.2167 399.095 67.95C397.702 66.5567 396.055 65.86 394.155 65.86H383.325V125.14ZM471.666 143V27.67H445.256V9.99999H515.746V27.67H489.336V143H471.666ZM513.457 143V48H553.167C556.967 48 560.197 49.3933 562.857 52.18C565.644 54.84 567.037 58.07 567.037 61.87V82.58L549.177 78.59V72.89C549.177 70.99 548.481 69.3433 547.087 67.95C545.821 66.5567 544.237 65.86 542.337 65.86H531.317V143H513.457ZM588.558 143C584.758 143 581.465 141.67 578.678 139.01C576.018 136.223 574.688 132.93 574.688 129.13V61.68C574.688 57.88 576.018 54.65 578.678 51.99C581.465 49.33 584.758 48 588.558 48H614.398C618.325 48 621.618 49.33 624.278 51.99C626.938 54.65 628.268 57.88 628.268 61.68V90.56C628.268 94.36 626.938 97.6533 624.278 100.44C621.618 103.1 618.325 104.43 614.398 104.43H592.548V118.3C592.548 120.2 593.181 121.847 594.448 123.24C595.841 124.507 597.551 125.14 599.578 125.14H624.278L628.268 143H588.558ZM592.548 86.57H603.568C605.468 86.57 607.051 85.9367 608.318 84.67C609.711 83.2767 610.408 81.63 610.408 79.73V72.7C610.408 70.8 609.711 69.2167 608.318 67.95C607.051 66.5567 605.468 65.86 603.568 65.86H599.578C597.551 65.86 595.841 66.5567 594.448 67.95C593.181 69.2167 592.548 70.8 592.548 72.7V86.57ZM640.434 143V48H680.144C683.817 48 687.047 49.33 689.834 51.99C692.62 54.65 694.014 57.88 694.014 61.68V143H676.154V72.7C676.154 70.6733 675.457 69.0267 674.064 67.76C672.67 66.4933 671.087 65.86 669.314 65.86H658.294V143H640.434ZM718.07 143C714.143 143 710.85 141.67 708.19 139.01C705.53 136.35 704.2 133.057 704.2 129.13V61.87C704.2 57.9433 705.53 54.65 708.19 51.99C710.85 49.33 714.143 48 718.07 48H739.92V4.67999L757.78 0.499989V143H718.07ZM728.9 125.14H739.92V65.86H728.9C727.126 65.86 725.543 66.4933 724.15 67.76C722.756 69.0267 722.06 70.6733 722.06 72.7V118.3C722.06 120.073 722.756 121.657 724.15 123.05C725.543 124.443 727.126 125.14 728.9 125.14Z" fill="white"/>
<defs>
<clipPath id="clip0_0_1">
<rect width="175" height="143" fill="white" transform="translate(0 44.5207) rotate(-11.3768)"/>
</clipPath>
</defs>
</svg>
